<?xml version="1.0" encoding="utf-8"?>
<!-- Svg Vector Icons : http://www.onlinewebfonts.com/icon -->
<!DOCTYPE svg PUBLIC "-//W3C//DTD SVG 1.1//EN" "http://www.w3.org/Graphics/SVG/1.1/DTD/svg11.dtd">
<svg version="1.1" xmlns="http://www.w3.org/2000/svg" xmlns:xlink="http://www.w3.org/1999/xlink" x="0px" y="0px" viewBox="0 0 1000 1000" enable-background="new 0 0 1000 1000" xml:space="preserve">
<metadata> Svg Vector Icons : http://www.onlinewebfonts.com/icon </metadata>
<g><path d="M586,367c-127.7,0-231.3,103.6-231.3,231.3c0,127.8,103.6,231.3,231.3,231.3c127.7,0,231.3-103.6,231.3-231.3C817.3,470.6,713.7,367,586,367z M586,713.5c-63.6,0-115.2-51.6-115.2-115.2S522.4,483.2,586,483.2s115.2,51.6,115.2,115.2S649.6,713.5,586,713.5z"/><path d="M129.5,213.2l177.1-9.3c10.3-0.5,19.1,7.5,19.7,17.7l1.9,36.4c0.6,10.3-7.4,19.1-17.7,19.7L133.4,287c-10.3,0.6-19.1-7.4-19.7-17.7l-1.9-36.4C111.3,222.6,119.3,213.8,129.5,213.2L129.5,213.2z M990,306l-201.8-11.2l-41.7-127.9H439.1l-34.9,126.9L10.7,318c-1.2,171.6-0.4,343.4-0.4,515c122.5,0,245,0,367.5,0c-4.7-4.2-9.3-8.5-13.8-13c-59.2-59.2-92.2-138.8-92.2-222.5c0-83.7,33-163.3,92.2-222.5c59.2-59.2,138.8-92.2,222.5-92.2c83.7,0,163.3,33,222.5,92.2c59.2,59.2,92.2,138.8,92.2,222.5c0,83.7-33,163.3-92.2,222.5c-4.5,4.5-9.1,8.8-13.8,13c64.9,0,129.8,0,194.7,0c0-154.1,0-308.3,0-462.5v-11.4L990,306L990,306z"/></g>
</svg>