<svg width="40" height="40" viewBox="0 0 40 40" fill="none" xmlns="http://www.w3.org/2000/svg">
<circle cx="20" cy="20" r="18" stroke="black" stroke-width="4"/>
<rect x="14" y="34" width="13" height="3" fill="black"/>
<path d="M8.74469 35H31.2505C31.6644 35 32 34.6645 32 34.2506V32.7494C32 32.5401 31.9233 32.3366 31.8995 32.1287C31.6037 29.5451 30.4945 27.2108 28.8281 25.3927C27.5639 24.0134 25.4687 24.3885 23.7705 25.1739C22.6239 25.7042 21.347 26 20 26C18.6542 26 17.3776 25.7047 16.2315 25.1752C14.5319 24.3901 12.4349 24.014 11.1701 25.3943C9.5047 27.2116 8.39614 29.5445 8.10049 32.1287C8.0767 32.3366 8.00005 32.5401 8.00005 32.7494V34.2506C7.99515 34.6645 8.33073 35 8.74469 35ZM19.9976 23C23.3117 23 25.9988 20.3135 25.9988 17C25.9988 13.6865 23.3117 11 19.9976 11C16.6834 11 13.9964 13.6865 13.9964 17C13.9964 20.3135 16.6834 23 19.9976 23Z" fill="black"/>
</svg>
